<?xml version="1.0" standalone="no"?>
<!DOCTYPE svg PUBLIC "-//W3C//DTD SVG 20010904//EN"
 "http://www.w3.org/TR/2001/REC-SVG-20010904/DTD/svg10.dtd">
<svg version="1.0" xmlns="http://www.w3.org/2000/svg"
 width="800.000000pt" height="257.000000pt" viewBox="0 0 800.000000 257.000000"
 preserveAspectRatio="xMidYMid meet">

<g transform="translate(0.000000,257.000000) scale(0.100000,-0.100000)"
fill="#000000" stroke="none">
<path d="M428 2474 c-20 -44 -42 -107 -48 -142 -20 -102 -2 -328 34 -422 4 -9
-15 -43 -47 -85 -97 -130 -171 -296 -204 -462 -23 -117 -23 -351 1 -488 90
-517 356 -743 976 -827 68 -9 248 -13 625 -13 450 0 548 3 651 17 319 46 515
129 670 284 68 68 89 97 132 185 83 168 115 330 116 589 0 93 -5 198 -13 240
-31 180 -99 350 -191 475 -33 46 -49 77 -46 90 2 11 12 54 21 95 21 92 25 286
6 350 -7 25 -26 78 -43 118 l-30 72 -73 0 c-212 0 -405 -60 -580 -181 l-71
-48 -94 18 c-263 53 -604 55 -880 5 -164 -29 -146 -32 -240 32 -163 109 -321
161 -520 171 l-116 6 -36 -79z m942 -1145 c211 -32 478 -35 670 -10 383 52
474 50 598 -10 120 -58 222 -194 257 -340 21 -92 19 -249 -4 -341 -28 -110
-65 -174 -145 -254 -121 -121 -290 -188 -551 -219 -154 -18 -696 -21 -856 -5
-435 45 -667 198 -740 490 -8 32 -14 104 -13 175 0 104 4 131 27 198 33 96 79
168 141 225 52 48 148 97 217 112 60 13 237 3 399 -21z"/>
<path d="M1065 1156 c-186 -91 -228 -455 -73 -631 68 -77 141 -95 224 -54 110
53 183 249 154 418 -17 101 -71 206 -127 245 -51 35 -130 45 -178 22z"/>
<path d="M2279 1151 c-123 -67 -187 -274 -144 -459 27 -112 80 -191 150 -223
113 -52 225 15 286 168 33 83 33 262 1 345 -29 72 -58 114 -105 151 -49 40
-133 48 -188 18z"/>
<path d="M5208 1653 l-38 -4 0 -410 0 -409 75 0 75 0 0 415 0 415 -37 -2 c-21
-1 -55 -3 -75 -5z"/>
<path d="M3410 1210 l0 -383 138 5 c155 5 215 23 270 81 72 76 96 165 90 336
-3 101 -7 124 -32 178 -33 73 -64 104 -131 135 -43 19 -70 23 -192 26 l-143 4
0 -382z m266 231 c55 -34 69 -79 69 -226 0 -110 -3 -136 -20 -169 -25 -50 -61
-76 -113 -83 l-42 -6 0 252 0 251 38 0 c20 0 51 -9 68 -19z"/>
<path d="M4140 1414 c-78 -34 -134 -119 -149 -226 -10 -74 0 -167 23 -223 49
-116 176 -174 309 -140 61 16 127 51 127 69 0 5 -12 28 -27 52 l-27 43 -33
-20 c-41 -25 -120 -34 -152 -17 -30 16 -58 54 -67 91 l-6 27 166 0 166 0 1 33
c7 156 -38 259 -132 307 -47 24 -148 26 -199 4z m151 -123 c16 -16 29 -38 29
-48 0 -10 3 -28 6 -40 6 -23 5 -23 -90 -23 -108 0 -111 4 -82 74 29 68 89 85
137 37z"/>
<path d="M4750 1414 c-48 -21 -97 -70 -128 -129 -25 -46 -27 -60 -27 -165 0
-106 2 -119 27 -166 49 -93 122 -137 229 -137 69 0 139 25 172 61 14 16 13 21
-16 68 l-32 51 -44 -23 c-112 -61 -181 -3 -181 151 0 56 5 90 18 115 30 61 95
77 167 40 22 -11 40 -20 41 -20 1 0 16 23 34 50 32 49 32 51 14 66 -66 53
-197 71 -274 38z"/>
<path d="M5864 1411 c-93 -42 -139 -141 -139 -296 1 -116 21 -174 82 -237 45
-46 89 -62 168 -61 92 1 167 47 208 128 24 49 40 151 34 218 -17 176 -101 267
-247 267 -42 0 -79 -7 -106 -19z m163 -137 c27 -29 37 -93 31 -187 -6 -87 -21
-122 -59 -137 -47 -20 -78 -5 -101 47 -17 39 -20 61 -16 143 3 71 8 104 21
124 33 50 84 55 124 10z"/>
<path d="M6555 1418 c-11 -6 -34 -24 -51 -40 l-31 -29 -6 30 c-6 31 -7 31 -72
31 l-65 0 0 -290 0 -290 75 0 75 0 0 208 0 208 28 26 c40 38 67 43 91 19 20
-20 21 -33 21 -241 l0 -220 75 0 75 0 0 243 c0 216 -2 246 -19 284 -12 25 -32
48 -50 57 -35 18 -117 21 -146 4z"/>
<path d="M7034 1411 c-92 -42 -148 -153 -147 -292 0 -95 24 -169 71 -221 66
-73 160 -100 262 -74 59 15 130 53 130 70 0 5 -12 28 -27 52 l-27 43 -33 -20
c-41 -25 -120 -34 -152 -17 -30 16 -58 54 -67 91 l-6 27 166 0 166 0 1 33 c5
161 -41 265 -135 308 -54 24 -148 24 -202 0z m157 -120 c16 -17 29 -40 29 -54
0 -14 3 -32 6 -41 5 -14 -6 -16 -90 -16 -108 0 -111 4 -82 74 29 68 89 85 137
37z"/>
<path d="M7800 1412 c-20 -11 -48 -41 -66 -70 l-31 -52 -12 60 -12 60 -95 0
-94 0 0 -55 0 -55 35 0 35 0 0 -175 0 -175 -35 0 -35 0 0 -60 0 -60 160 0 160
0 0 60 0 60 -51 0 -51 0 4 93 c4 109 32 177 89 215 l34 23 3 -55 3 -56 48 0
48 0 13 121 c7 66 9 123 6 126 -4 4 -32 8 -64 10 -42 3 -66 -1 -92 -15z"/>
<path d="M5411 1284 c-45 -70 -81 -132 -79 -138 2 -6 39 -80 83 -163 l80 -153
82 0 c46 0 83 4 83 9 0 4 -39 77 -86 160 -47 84 -83 158 -80 166 3 8 36 61 74
117 38 57 72 109 76 116 5 9 -11 12 -72 12 l-80 0 -81 -126z"/>
</g>
</svg>
