<?xml version="1.0"?>
<svg width="512" height="512" xmlns="http://www.w3.org/2000/svg" xmlns:svg="http://www.w3.org/2000/svg" enable-background="new 0 0 512 512" version="1.1" xml:space="preserve">

 <g class="layer">
  <title>Layer 1</title>
  <path d="m446.01,428.74c-99.91,99.8 -262.6,99.8 -362.6,0c-99.99,-99.8 -99.99,-262.17 0,-361.91c26.46,-26.37 58.72,-46.48 95.82,-59.6c11.7,-4.1 24.64,-1.14 33.32,7.58c8.75,8.74 11.72,21.65 7.59,33.23c-25.12,70.73 -8.01,147.29 44.57,199.77c52.51,52.44 129.22,69.47 200.17,44.48c11.6,-4.12 24.58,-1.16 33.3,7.58c8.77,8.68 11.7,21.63 7.55,33.25c-13.06,37.03 -33.26,69.22 -59.72,95.63zm-317.27,-316.69c-75,74.85 -75,196.65 0,271.44c80.13,80.03 216.6,72.81 286.48,-16.31c-72.04,4.5 -143,-21.45 -195.83,-74.15c-52.85,-52.68 -78.81,-123.5 -74.3,-195.39c-5.75,4.52 -11.22,9.3 -16.35,14.41z" fill="#ffffff" id="svg_1"/>
 </g>
</svg>